<svg width="24" height="24" viewBox="0 0 24 24" fill="none" xmlns="http://www.w3.org/2000/svg">
<path d="M21.4868 21.5H2.51317C2.56991 20.4233 2.80961 19.3629 3.22314 18.3645C3.70056 17.2119 4.40033 16.1646 5.28249 15.2825C6.16464 14.4003 7.21191 13.7006 8.36451 13.2231C9.5171 12.7457 10.7524 12.5 12 12.5C13.2476 12.5 14.4829 12.7457 15.6355 13.2231C16.7881 13.7006 17.8354 14.4003 18.7175 15.2825C19.5997 16.1646 20.2994 17.2119 20.7769 18.3645C21.1904 19.3629 21.4301 20.4233 21.4868 21.5ZM16.5 7C16.5 9.48528 14.4853 11.5 12 11.5C9.51472 11.5 7.5 9.48528 7.5 7C7.5 4.51472 9.51472 2.5 12 2.5C14.4853 2.5 16.5 4.51472 16.5 7Z" stroke="white"/>
</svg>
