<svg width="24" height="24" viewBox="0 0 24 24" fill="none" xmlns="http://www.w3.org/2000/svg">
<path fill-rule="evenodd" clip-rule="evenodd" d="M14.438 15.1451C13.1188 16.3001 11.3911 17 9.5 17C5.35786 17 2 13.6421 2 9.5C2 5.35786 5.35786 2 9.5 2C13.6421 2 17 5.35786 17 9.5C17 11.3911 16.3001 13.1188 15.1451 14.438L21.8536 21.1464L21.1464 21.8536L14.438 15.1451ZM16 9.5C16 13.0899 13.0899 16 9.5 16C5.91015 16 3 13.0899 3 9.5C3 5.91015 5.91015 3 9.5 3C13.0899 3 16 5.91015 16 9.5Z" fill="white"/>
</svg>
