<svg xmlns="http://www.w3.org/2000/svg" viewBox="0 0 84.892593 29.044767"><defs/><g fill="red" font-family="a Theme for murder" font-size="33.26828003" font-weight="400" letter-spacing="0" word-spacing="0"><path d="M18.583453 0h.06498l-.324885.324886h-.129954zm-.714748.584794h.129954q-2.58284 3.914871-2.858993 4.873283l-1.234565 2.534108-1.429496 2.46913q-.09747 0-.324886.519817-.129954 0-.194931.519817-1.754382 2.777771-1.754382 3.118901-.243664.03249-1.234565 1.949317l-.779725 1.23456q0 .32489-.974657 1.62443l-1.039634 1.6894q0 .25991-.324885.51982 0 .24366-.259909.38986l-.454839.97466q-.178687.0975-.779726 1.10461-.211175 0-.454839.51982-.162443 0-.324886.45484-.633527.92592-.90968 1.03963l-.714748.97466q-.2274196 0-.3248853.38986-.097466 0-.584794.58479l-.064977.065h-.064977l-.1299542-.12995.6497711-.90968q.5035724-1.02339 1.7543814-2.59909 0-.17868.584794-1.10461 1.169588-1.60818 1.169588-1.94931l.584794-.8447q0-.1462.519817-.77973 0-.19493.194931-.32488l.259909-.77973.519817-.64977q.178687-1.03963.519817-1.03963.243664-.19494.389862-.64978l.129955-.389858q.194931 0 .194931-.259908l1.104611-2.079268q.536061-1.413252.844702-1.819359 0-.146198.844703-1.299542.844702-2.534107 2.079267-5.263146l.194931-.519817q-.373618.06498-4.093557 3.053924h-.129955q.828458-1.055878 1.754382-1.624427l2.988947-2.469131q1.413252-1.202076 2.014291-1.494473zM14.61985 2.274199h.129954l-.324886.259908h-.06498zm-.90968.584794h.06498l-.324885.259908h-.06498V2.92397zm-1.299542.714748h.194931v.06498l-.649771.45484h-.06498v-.06498l.194931-.259908.06498.06498h.06498zm-.844703.649771h.06498v.06498q-.129955.259909-.389863.259909zM8.77191 8.057162h.06498v.06498q-.09747.324885-.389863.324885.09747-.259908.324886-.389862zm3.118901 5.003237q.389863.162443.389863.389863-.211176.45484-.519817.45484 0-.194932-.259909-.194932l.06498-.06498v-.06498l-.06498-.06498v-.06498zm-.779725 1.429497h.06498l.129954.129954v.194931l-.129954.129954-.194932-.194931v-.129954zm-.45484.844702l.129954.129954v.06498l-.259908.259909h-.06498l-.129952-.129957zM.6497711 28.200067h.064977v.065l-.2599085.38986H.3248855v-.065q.097466-.27615.3248856-.38986zm-.4548398.64977v.065l-.1299542.12995-.064977-.065v-.065l.064977-.065zM30.2306 1.624428q.893435 0 1.299542.45484v.194931q0 .763481-2.339176 3.573741-.487328.747237-1.559451 1.884336-2.144244 2.761527-3.248855 3.248856v-.06498q2.566596-2.501619 2.664061-3.118902 1.494474-1.640672 1.689405-2.209221.536061-.877191.90968-1.234565l.389862-.974657q-.341129-.259909-.909679-.259909-2.58284.779726-3.183878 1.169588l-.194932.06498.06498.649771v.259908l-.194931.194931-.06498-.06498v-.129954l.06498-.06498-.06498-.06498.06498-.45484v-.06498l-.129954-.129954-1.234565 1.234565q0 .129954-.844703 1.104611-.292397 1.169588-.779725 1.169588l-.974657 1.624427q-.454839.79597-.519817 1.36452l-.06498.389862q-.454839.487329-.454839.974657v.649771l-.06498 1.039634.06498.389863h-.06498q0 .422351.389863.779725.633527 1.153346 1.559451 2.274206l.45484.45484.06498-.065h.06498l1.55945 1.03963q.649771.22742 1.36452 1.16959 1.299542.64977 1.884336.64977.860947.27615 1.689405.77973.795969.38986 2.079267.64977.844703.45484 2.209222.77972l.45484-.065 1.494473.065 2.794016-.065q.04873.19493.519817.19493h.194931q.11371-.12996 2.079268-.38987h.06498l.259908.065q.990901-.25991 2.079268-.25991h.584794q.877191-.32488 2.729038-.58479.146199-.12996 1.039634-.25991l.129954.19493q-.162443.27615-1.819359.64977l-.06498.065h-.584794l-.844702.32489h-.45484l-4.093558.71474q0 .1462-1.949313.19494l-1.754382-.065-.90968.065-1.494473-.19494h-1.36452q-1.624427-.24366-2.599084-.58479l-2.339176-.8447q0-.1462-.714748-.32489l-3.118901-1.62443q-.860947-.58479-1.039634-.58479l-.06498-.065q-.129954 0-.129954-.25991-.471084 0-1.949314-1.94931-.503572-.51982-.974656-1.299544-1.039634-1.039634-1.039634-2.794015v-.779726l.259908-1.299542q.714749-1.981802 1.299542-2.664061 0-.406107.779726-1.169588l1.494473-1.884337q.194932-.568549 1.169588-1.364519.11371 0 .649771-.649771 2.842749-1.819359 5.588032-1.819359zm1.949313 7.472368l.06498.06498v.06498l-.06498.06498h-.06498l-.06498-.06498v-.06498l.06498-.06498zm-.194931.714748l.06498.06498v.06498l-.129954.129954-.129955-.129954zm-7.86223 1.364519h.06498v.06498l-.519817.519817h-.06498v-.06498zm6.627665 1.429496v.06498l-.129955.129954h-.06498zm-.389863.324886v.06498l-.389863.389863h-.06498v-.06498q0-.129955.45484-.389863zm-7.212459.194931h.194931v.06498l-.129954.129955-.06498-.06498zm5.263146 1.234565l.06498.06498v.06498l-.259909.259908h-.129954q.09747-.276153.324886-.389863zm-.779726.649771l.06498.06498v.06498l-.06498.06498h-.06498l-.06498-.06498v-.06498l.06498-.06498zm-6.302779 8.771915l.06498.065v.065l-.194931.12995h-.129958zm-.519817.64977l.06498.065v.065l-.129954.12995-.129954-.12995zm8.252093.38986h.06498l.129954.12995v.065l-.389862.065v-.065zm-8.77191.12995h.06498l.129954.12996v.12995l-.129954.12996h-.129954l-.129954-.12996v-.065zm7.86223.065h.519817v.12995h-.519817z" style="line-height:1.25;-inkscape-font-specification:'a Theme for murder'"/><path d="M38.482692 7.602322v.06498q0 .162443-.519817.324886v-.06498q.03249-.162443.519817-.324886zm-.974657.389863v.06498l-1.364519.779725q-2.274199 1.851848-2.339176 2.534107-2.664061 3.167634-2.664061 3.313833l-.844703 1.299542-.259908.324886v.129949h.06498l1.104611-.389858h.06498q-1.299542.828458-2.534107 1.299538 2.079267-3.460027 3.118901-4.808302h-.06498q-.503573.406107-1.104611 1.234565-.45484 0-3.118901 2.729037-2.144245 2.01429-2.469131 2.01429h-.06498q.243664-.35737.519817-1.36452 1.429497-2.680303 2.794016-4.678349.373618-.357374.779725-1.039634.178687 0 1.169588-1.10461 1.218321-1.1371 2.599085-1.494474.227419 1.364519.324885 1.364519.129954 0 .129954.194932l.06498.06498h.06498q2.290443-2.095512 4.02858-2.46913zm-10.916154 8.771912h.06498q.308641-.0975 6.30278-6.107851v-.06498l-.45484-.974657q-1.234565.308642-2.794016 2.404153-.178687.584794-1.299542 1.689405-1.543206 1.851848-1.819359 3.05393zm7.537345-4.09356h.06498v.259908l-.129954.129954-.06498-.06498v-.194931zm2.794015 1.10461h.194932l-.129955.129955h-.06498zm-.974656.45484q0 .129954-.45484.259909v-.06498l-1.949313.649771h-.06498q.552305-.438596 2.404153-.844703zm-2.534108.844703h.06498q-.08122.211175-1.754382.714748.162442-.259909 1.689404-.714748zm-1.949313.779725h.194931l-.129954.129954h-.194931z" style="line-height:1.25;-inkscape-font-specification:'a Theme for murder'"/><path d="M40.984311 7.407391l.129954.129954v.129954q-.617282 1.185832-.974656 1.494474l-.714749 1.104611q-.763481 1.039633-1.234565 1.364519-.601038.649771-.779725.649771-.22742.129954-.45484.714748-.259908.03249-.259908.194931l1.429496-.844702q4.256001-2.404153 4.743329-2.404153.324886.259908.324886.45484-1.104611 2.192977-2.209222 3.248855-1.575695 1.900581-2.339176 3.508764v.065l1.364519-1.104614h.06498q0 .11371-1.689404 1.624424-.844703 2.01429-1.299543 2.07927l-.129954-.25991q.357374-.79597.90968-1.49447.162443-1.00715 1.884336-4.158535.649771-1.25081.649771-1.559451h-.129954l-.194932.129954h-.389862q0 .243664-1.689405.584794l-1.754382.779726q-1.039634 1.234565-1.884336 2.729042-.552306.94216-1.364519 1.42949l-.129955-.12995v-.065l1.624428-2.339175q.194931 0 .194931-.194931l.129952-.129954q0-.259909.259908-.259909 0-.259908.584794-.909679.129954-.45484.519817-.844703l.714748-.909679q0-.194932.584794-.90968 0-.22742.584794-.584794l.974657-1.169588v-.194931q-1.591939 1.104611-2.404153 1.364519 0 .211176-1.169588.844703 0 .129954-.714749.389862-.178687.389863-2.46913 1.299543.308642-.324886 1.949314-1.169588.990901-.877191 4.223512-2.92397.828458-.56855 1.429496-.714749V8.31707q.633527-.276152 1.039634-.909679zm3.443787 2.209221h.06498l.129954.129955-.06498.06498h-.06498l-.06498-.06498zm-12.15072 3.638719l-.649771.519816h-.06498v-.06498q0-.162442.714748-.454839zm11.111086.259908l.06498.06498v.06498l-.06498.06498h-.129954v-.06498zm1.299542.259908h.129954v.129955l-.259908.06498v-.06498zm-13.320307.06498l-.259909.194931-.06498-.06498v-.06498l.06498-.06498zm12.020765.259908q-.373618.292397-1.884336.974657v-.129955q1.543206-.844702 1.884336-.844702zm-2.209222 1.039632h.129955q-.292397.454839-.649772.454839zM57.472253 5.035726h.129954v.129954q-.308641 0-.974656.584794-.276153 0-1.949313 1.819359 0 .194932-.194932.324886 0 .373618-1.169588 1.819359 0 .292397-.519817.90968v.194931l1.429497.45484q.259908.194931 1.104611.194931l.909679-.194931q0 .259908-1.104611.454839-.942168 0-2.534107-.519816-.276153 0-1.494473 1.819359-1.965558 2.095511-2.404154 3.573736v.32489q.22742.51982.584794.51982 1.36452-.30864 1.36452-.71475l.584794-.714749-.324886.06498q-.34113 0-.389862-.194932.373618-.584794 1.234565-.584794 0 .259909.259908.259909l-.649771.844696q-1.624428 1.62443-2.339176 1.62443-.79597 0-1.104611-.97466 0-.925916.844703-2.404146.454839-.974656 1.429496-2.01429l-.06498-.06498-4.613375 2.794016h-.06498q.763481-.714749 2.339176-1.624428l.779725-.649771q.01624-.11371 1.234565-.779726 1.526962-1.250809 1.689405-1.55945v-.06498q-.893435-.389863-2.404153-.389863l-.194931.06498v-.129954q.601038-.194931 1.039634-.194931l1.884336.454839q0-.324885 1.55945-1.884336 0-.357374.389863-.45484 0-.178687.519817-.714748 0-.276152 1.039634-1.169588.194931 0 .259908-.324885.211176 0 .45484-.389863l.584794-.324885zm-8.706932 5.328123h.06498l-.194932.194931v-.06498zm-.584794.974657h.06498v.06498l-.129954.129954h-.06498v-.06498zm7.537344 2.209222h.06498v.129954h-.194934zm-.389862.259908l-.45484.324886h-.129954q.259908-.324886.584794-.324886zm-.779726.389863v.129954l-.779725.324885q0-.178687.779725-.454839zm-.779725.454839l-.194931.194932h-.194932q0-.129954.389863-.194932zm-1.039634.519817h.129955l-.129955.129954h-.129954zm-7.667299.259909h.06498v.194931l-.779725.324886q.08122-.162443.714748-.519817zm5.653009.454839v.06498h.06498q.649771-.129955.649771-.259909v-.129954h-.129954q-.584794.129954-.584794.324885zM71.832193 1.299542h.06498v.129955l-.129954.129954h-.06498v-.129954zm10.916155.519817h.389862l.129955.129954v.06498l-1.169588.909679q-.601039.357374-.844703.714748-.178687 0-1.494473.974657l-1.754382.90968q-.649771.162442-1.559451.844702l-1.364519.324885h-.194932v-.06498q0-.11371 1.169588-.389862l1.559451-.779726q1.543206-1.234565 1.884336-1.234565.276153-.341129 1.624428-1.364519v-.129954l-1.429496.194931q-.324886 0-.324886-.129954l-.259908.129954-1.039634-.06498q-.925924 0-2.209222 1.169588-1.364519 1.169588-1.364519 1.754382-.324886.812214-.45484 2.404153l-.06498.06498.129954.129954v.844703l.129954.194931v.129954l.06498 2.079268h-.06498l.06498.06498v.324885l-.259908 1.299543q-.22742.276152-.649771 1.429496l-1.234565 1.559451q-.162443 0-.194931.32488-.292397.0487-.519817.64977l-.389863.38987q0 .12995-.389863.51981 0 .25991-.259908.25991 0 .12996-.649771.71475-.389863.55231-.389863.77973l.129954.12995v.065l-.194931-.19493-1.039634.71474q-1.981802 1.51072-4.678352 1.94932l-.389862.12995h-1.299542q-1.332031 0-2.079268-.64977l-.519817-.45484-.194931.065q-.243664-.21118-.389863-.5848-.162443-.0975-.45484-.58479v-.25991l.06498-.065q-.259909-.82845-.259909-1.36452v-.065l.129954-.19493-.129954-.19493q.292397-1.49448.714748-1.49448 1.510718-1.234561 2.599085-1.234561h.454839q.601039 0 1.104611.714741v.065q-.763481-.58479-1.104611-.58479-1.591939 0-2.599084 1.23456l-.389863.38987.06498.065v.065q-.194932.24366-.194932.64977l-.194931.19493.06498.64977-.06498.51982q.68226 1.15334 1.559451 1.75438 0 .40611 1.234565.77973h1.884336l.324885.065q0-.32488 1.494474-.51981 1.868092-.60104 2.858993-1.55945.438595-.12996 1.039633-.84471.259909 0 .259909-.32488l.519817-.51982q.292397 0 1.104611-1.29954h.129954v-.32489q.714748-1.185826.974656-1.299536l.584794-.714748q0-.194931.194932-.194931v-.45484q.45484-.552305.45484-1.754382v-1.754382l-.129955-.649771.06498-.06498v-.06498q-.194938-1.055964-.194938-2.274285l.06498-.259908-.06498-.324886.324886-.194931v-.129955q0-.942168 1.364519-2.599084 1.413252-1.754382 3.443787-1.754382l.519817-.194931.584794.194931.06498-.06498 1.299542.06498q1.67316 0 2.274199-.519817zM69.298086 6.237803l.06498.06498v.06498l-.194931.194931-.129954-.129954zm2.599084 1.55945h.06498l-.259909.259909h-.06498zm5.653009.649771h.194931l-.129954.129955h-.06498zm-7.017528.519817h.06498v.06498l-.129954.129955h-.06498v-.06498zm-7.40739 7.797256h.06498q.194931.065.194931.38986l-.259908-.32489zm13.450261.58479l.06498.065v.065l-.06498.065h-.129954v-.065zm-4.743329 4.5484l.129955.12995-.194932.12996-.06498-.065v-.065z" style="line-height:1.25;-inkscape-font-specification:'a Theme for murder'"/><path d="M77.485202 9.096796l.259909 1.10461-.06498.06498.06498.454839v1.429497q0 .617282-1.624428.779725h-.06498q-.471084 0-.584794-.194931l-.06498.06498h-.519817q-.990901 2.095512-1.299542 3.313832v.259909q0 .84471.389862 1.03964 1.380764 0 4.743329-2.664068v.194931q-3.91487 2.923977-4.613374 2.923977h-.129955q-.877191 0-1.039633-1.36452v-.844708q.01624-.958413.974656-2.988947-.844702-.22742-.844702-.389863h.06498l.844702.259908q.357374-.958412 2.858993-3.248855zm-2.858993.194931l.129955.129954-.194932.194931-.06498-.06498v-.129954zm.519817 3.248855h.06498q2.014291-.22742 2.014291-.649771l-.129954-.779725.06498-.06498-.194932-1.039634q-.357374.162443-1.55945 2.209222 0 .129954-.194932.129954zm-3.313832-1.364519q.552305.617283 1.234565 1.104611h-.06498q-.373619 0-1.169588-.974657zm8.122138 2.534107h.06498v.129955l-.324886.194931h-.06498v-.129954zm-.714748.649771h.06498v.06498q-.194931.324885-.454839.324885zm-2.079267.584794v.129955l-.194932.194931-.06498-.06498v-.064974zm-.519817.649771h.06498q-.09747.259909-.194931.259909v-.129954zm2.599084 1.234561v.12996l-.259908.25991-.06498-.065v-.065z" style="line-height:1.25;-inkscape-font-specification:'a Theme for murder'"/><path d="M82.358486 9.096796l.259908 1.10461-.06498.06498.06498.454839v1.429497q0 .617282-1.624428.779725h-.06498q-.471084 0-.584794-.194931l-.06498.06498h-.519817q-.990901 2.095512-1.299542 3.313832v.259909q0 .84471.389863 1.03964 1.380763 0 4.743329-2.664068v.194931q-3.914871 2.923977-4.613375 2.923977h-.129954q-.877191 0-1.039634-1.36452v-.844708q.01624-.958413.974657-2.988947-.844703-.22742-.844703-.389863h.06498l.844703.259908q.357374-.958412 2.858993-3.248855zm-2.858993.194931l.129954.129954-.194931.194931-.06498-.06498v-.129954zm.519817 3.248855h.06498q2.01429-.22742 2.01429-.649771l-.129954-.779725.06498-.06498-.194931-1.039634q-.357374.162443-1.559451 2.209222 0 .129954-.194931.129954zm-3.313833-1.364519q.552306.617283 1.234565 1.104611h-.06498q-.373618 0-1.169588-.974657zm8.122139 2.534107h.06498v.129955l-.324886.194931h-.06498v-.129954zm-.714748.649771h.06498v.06498q-.194932.324885-.45484.324885zm-2.079268.584794v.129955l-.194931.194931-.06498-.06498v-.064974zm-.519817.649771h.06498q-.09746.259909-.194931.259909v-.129954zm2.599085 1.234561v.12996l-.259909.25991-.06498-.065v-.065z" style="line-height:1.25;-inkscape-font-specification:'a Theme for murder'"/></g></svg>