<svg xmlns="http://www.w3.org/2000/svg" viewBox="0 0 55.195957 18.56003"><defs/><g fill="#fff" font-weight="400" word-spacing="0"><path d="M10.89881 4.48389v-.15615q.02231 0 .06692-.007.04462-.007.08923-.0372.05205-.0372.08923-.1041.04462-.0744.05205-.20077V.4317l.0074-.007v-.007q.0074-.007.0074-.0223 0-.0149-.01487-.0223-.01487-.007-.02974-.007h-.126411q-.0818 0-.171028.0149-.08923.007-.163591.0372-.07436.0223-.09667.0818l-.446159.99642h-.118976V.50743q-.0074-.12641-.05205-.19333-.03718-.0744-.08923-.10411-.04462-.0372-.08923-.0446-.04462-.007-.06692-.007V.00224h3.546963v.15615q-.02231 0-.06692.007-.04462.007-.09667.0446-.04462.0298-.08923.10411-.03718.0669-.04462.19333v.98899h-.118975L12.430554.5q-.02231-.0595-.09667-.0818-.07436-.0297-.163591-.0372-.08923-.0149-.171028-.0149h-.126412q-.01487 0-.02974.007t-.01487.0223q0 .0223.0074.0298 0 .007.0074.007v3.54697q.0074.12641.04462.20077.04462.0669.08923.1041.05205.0298.09667.0372.04462.007.06692.007v.15615zM19.064033 4.48389h-1.375656v-.15615h.230515q.07436-.007.08923-.0892.01487-.0818-.02231-.20821l-.342055-1.14514h-1.256681l-.364363 1.28642q-.01487.10411.07436.13385.08923.0223.245387.0223v.15615h-1.011293v-.15615h.11154q.06692-.007.09667-.0223.02231-.0149.04462-.0595.02974-.0446.06692-.17103.04462-.13384.11154-.37923.06692-.24539.178463-.66924.11154-.42385.275132-1.04847.163591-.63206.401542-1.52438l.02231-.11897q.01487-.0818-.01487-.12642-.02231-.052-.126411-.052h-.11154V.00007h1.643352v.15615q-.14872 0-.237952.10411-.08923.1041-.03718.26026.245388.85513.416415 1.46488.171028.60232.282567 1.0113.118976.40898.1859.65436.07436.24539.118976.37924.04461.13385.06692.1859.02974.0446.05949.0669l.02231.0223q.01487 0 .02974.0149.02231.007.126412.007zm-1.509504-1.91848L16.99683.58744l-.520518 1.97797zM23.868195 2.87772v1.10053q.0074.12641.04462.20077.04462.0669.08923.1041.05205.0298.09667.0372.04462.007.06692.007v.15615h-2.974392v-.15615q.02231 0 .06692-.007.04462-.007.08923-.0372.05205-.0372.08923-.1041.04462-.0744.05205-.20077V.50564q-.01487-.12641-.05205-.19333-.03718-.0744-.08923-.10411-.04462-.0372-.08923-.0446-.04461-.007-.06692-.007V.00045h1.241808V.1566q-.02231 0-.07436.007-.04461.007-.09667.0446-.04462.0298-.0818.10411-.03718.0669-.04462.19333v3.61389h.892318q.06692-.007.111539-.0223.05205-.0149.08923-.0892l.520519-1.13027zM26.233351 0h2.877724v.15615q-.02231 0-.06692.007-.04462.007-.09667.0446-.04462.0298-.08923.10411-.03718.0669-.04462.19333v.98155h-.118975l-.446159-.88488q-.05949-.11154-.104104-.17103-.04462-.0595-.141284-.0669h-.825393v1.54668h.178463q.05205 0 .0818-.0149.03718-.0223.0818-.0818.05205-.0669.118975-.1859.06692-.12642.1859-.33462h.118976v1.60617h-.118976q-.118976-.20821-.1859-.32718-.06692-.12642-.118975-.1859-.04462-.0669-.0818-.0818-.02974-.0223-.0818-.0223h-.178463v1.83669h.892317q.06692-.007.11154-.0223.05205-.0149.08923-.0892l.520518-1.13027h.118976v1.10053q.0074.12641.04462.20077.04462.0669.08923.1041.05205.0298.09667.0372.04462.007.06692.007v.15615h-2.974392V4.3269q.02231 0 .06692-.007.04462-.007.08923-.0372.05205-.0372.08923-.1041.04462-.0744.05205-.20077V.50522q-.0074-.12641-.05205-.19333-.03718-.0744-.08923-.10411-.04462-.0372-.08923-.0446-.04462-.007-.06692-.007zM38.496307 4.48389q-.26025 0-.46103-.17102-.19333-.17103-.21564-.46847V.63206q.0223-.29001.21564-.46104Q38.236057 0 38.496307 0h1.13027q.26026 0 .4536.17102.20077.17103.22308.46104V3.8444q-.0223.29744-.22308.46847-.19334.17102-.4536.17102zm.8254-.36436q.14128 0 .23051-.0818.0892-.0818.10411-.2082V.65436q-.0149-.12641-.10411-.2082-.0892-.0818-.23051-.0818h-.52052q-.14128 0-.23052.0818-.0892.0818-.1041.2082v3.17517q.0149.12641.1041.2082.0892.0818.23052.0818zM42.556877 4.48389v-.15615q.0223 0 .0669-.007t.0892-.0372q.052-.0372.0892-.1041.0446-.0744.0521-.20077V.50606q-.007-.12641-.0521-.19333-.0372-.0744-.0892-.10411-.0446-.0372-.0892-.0446-.0446-.007-.0669-.007V.00087h2.90003v.15615q-.0223 0-.0669.007t-.0967.0446q-.0446.0298-.0892.10411-.0372.0669-.0446.19333v.95924h-.11898l-.49821-.98898q-.0372-.0818-.0892-.0967-.0521-.0149-.11154-.0149h-.84026v1.64335h.17846q.052 0 .0818-.0149.0372-.0223.0818-.0818.0521-.0669.11898-.1859.0669-.12641.1859-.33461h.11897v1.60617h-.11897q-.11898-.20821-.1859-.32719-.0669-.12641-.11898-.1859-.0446-.0669-.0818-.0818-.0298-.0223-.0818-.0223h-.17846v1.59874q.007.12641.0446.20077.0446.0669.0892.1041.0521.0298.0967.0372.0446.007.0669.007v.15615z" font-family="PAC LIBERTAS" font-size="7.43598" letter-spacing="1.85208" style="line-height:1.25;-inkscape-font-specification:'PAC LIBERTAS'"/><path d="M.347448 9.6198c.09354-.147.213816-.26727.347451-.36082.146999-.0935.307361-.147.481086-.17372.120272-.0134.240543-.0134.360815-.0134.253906.0134.507813.0668.761719.0935.253906.0267.507813.0267.761719-.0267.347451-.0668.681539-.24054.948809-.46772.280633-.24054.521176-.50781.775083-.77508.04009-.0535.09354-.12028.146998-.17373l-.253906-.12027c-.213816.13363-.454359.21382-.694902.25391-.253907.0401-.521177.0401-.775083.0134-.253907-.0267-.507813-.0668-.761719-.0936-.240543-.0134-.467723 0-.708266.0401-.227179.0534-.440995.13363-.641448.26727-.280633.17372-.494449.41426-.668175.6949-.146998.22718-.253906.45436-.334087.70826zm1.162625 6.32093v.33409c.521176-.0534 1.042352-.21382 1.483348-.49445.320724-.21382.614721-.49445.775083-.8419.08018-.18709.133635-.37418.160362-.56127.02673-.18709.02673-.38754.02673-.58799v-2.98006c.01336-.37418.01336-.77508.133635-1.1359.05345-.18709.146998-.36081.253906-.52117.06682-.0935.146999-.18709.22718-.28064v7.56374c-.788447-.26727-1.670438-.26727-2.458884 0C1.189352 16.76927.414269 17.45081 0 18.31944h.400905c.521177-.54791 1.282896-.85527 2.031252-.82854.494449.0267.988899.20045 1.403167.48108l1.33635-1.26953c-.08018-.0401-.146998-.0802-.213816-.10691v-3.32751h1.8308v2.9667l-.694902.53454.146998.20045.334088-.2539 1.296259 1.18935 1.763982-1.51008-.187089-.18709-.414268.34745-.387542-.41426V8.89817l.507813-.41427-.240543-.294-.387541.32073-1.015626-.82854-1.550166 1.26953.01336.36082.454359-.34745.360815.33408v2.40543h-1.8308V8.47054h-.387541l-.334088.38754c-.200452.22718-.414268.44099-.654811.61472-.22718.17372-.481086.33409-.721629.52118-.213816.17372-.387541.37417-.494449.62808-.106908.25391-.133635.53454-.133635.80181v.34745c-.253907.0401-.521177.0802-.76172.18709-.187089.0935-.347451.22718-.481086.38754s-.213816.34745-.26727.54791c-.08018.38754-.01336.78844.173726 1.12253h.253906c-.01336-.0935-.01336-.18709.01336-.28063.02673-.16037.133635-.30736.280633-.38755.06682-.0401.146999-.0668.22718-.0802.08018-.0134.160362-.0134.240543-.0134h.320724v.0267c0 .38754.02673.78844.01336 1.17598 0 .20046-.01336.38755-.06682.588-.04009.18709-.120272.37418-.240543.52117-.106908.16037-.253907.294-.427632.37418zM13.511427 16.99645l.587994-.48109 1.991162 1.46999 2.752881-2.23171-.200453-.32072-1.469985 1.14926-1.60362-1.09581v-.57463l2.886516-1.79071v-.0668l-1.349713-2.04462-3.193877 1.65708v3.52796l-.641448.50781zm2.057979-2.40543v-2.41879l.253907-.147 1.162624 1.67044zM26.608603 16.18128l-.721629.49445-.53454-.41427v-3.94224c.200453.18709.414269.33409.654812.42764.160362.0668.334087.12027.494449.12027.173726.0134.347451-.0267.507813-.0935.200453-.0935.360815-.2539.481086-.42763.106908-.18709.187089-.38754.253907-.60136.06682-.24054.106908-.49445.133635-.74835h-.400905c-.06682.10691-.160362.20045-.26727.2539-.106908.0535-.22718.0802-.360815.0802-.227179 0-.454359-.13364-.57463-.33409h-.133635l-.935445 1.06908-.975536-1.05572-1.790709 1.21608.187089.25391.507813-.32073.454359.57463v3.52797l-.8419.57463.200452.2539.440996-.32072 1.469985 1.14926 2.004525-1.44326zM33.505094 15.8071v-3.83533l1.536803 1.01563v3.84869zm-2.17825 1.14926l.561267-.45436c.614721.45436 1.242805.90872 1.87089 1.36308l2.953336-1.80408v-3.64823l-1.92435-1.46999-3.006784 1.7239v3.44778l-.681539.5479zM40.896037 16.99645l.58799-.48109 1.99116 1.46999 2.75288-2.23171-.20045-.32072-1.46998 1.14926-1.60362-1.09581v-.57463l2.88651-1.79071v-.0668l-1.34971-2.04462-3.19388 1.65708v3.52796l-.64144.50781zm2.05798-2.40543v-2.41879l.2539-.147 1.16263 1.67044zM55.195927 11.03633h-.37418v.0134-.0134c-.0267.17372-.10691.32072-.24054.42763-.12028.0802-.26727.13364-.41427.13364-.16036 0-.30736-.0401-.441-.0935-.22718-.10691-.41427-.28063-.5479-.49445l-2.76625 1.60362v1.87089l1.01563.80181c-.12027.10691-.22718.21382-.33409.32073-.36081.36081-.70826.74835-.86863 1.22944-.0935.33408-.0935.6949.0401 1.01562.13363.32073.4009.57463.72162.70827l.13364-.36082c-.0802-.0401-.13364-.1069-.17373-.18708-.0267-.0935-.0267-.20046.0134-.294.0267-.0935.0935-.17373.17372-.22718.12027-.0802.25391-.12027.40091-.12027.13363-.0134.26727.0267.4009.0802.25391.0935.48109.294.61472.53454l2.63261-1.60362v-2.01789l-1.14926-.8419c.147-.13364.28064-.26727.41427-.41427.147-.20045.28063-.41427.37418-.64145.21381-.44099.33409-.93544.37418-1.42989zm-2.47225 3.60814l.73499.60136v1.73726c-.16036-.37418-.46772-.68154-.82854-.85527-.26727-.13363-.56126-.18709-.85526-.17372-.294.0267-.57463.13363-.80181.30736.12027-.13364.25391-.26727.38754-.40091.28064-.26727.57463-.53454.88199-.80181zm-.0401-.45436l-.5479-.57463v-1.73725c.14699.37418.45435.6949.82853.85526.26727.12027.54791.16037.82854.12027.16036-.0267.32072-.0668.46772-.13363-.0401.0534-.0802.10691-.12027.16036-.13363.17373-.30736.32073-.46772.45436z" font-family="Chomsky" font-size="13.3635" letter-spacing="3.32846" style="line-height:1.25;-inkscape-font-specification:Chomsky"/></g></svg>