<?xml version="1.0" encoding="UTF-8" standalone="no"?>
<svg
   xmlns:dc="http://purl.org/dc/elements/1.1/"
   xmlns:cc="http://creativecommons.org/ns#"
   xmlns:rdf="http://www.w3.org/1999/02/22-rdf-syntax-ns#"
   xmlns:svg="http://www.w3.org/2000/svg"
   xmlns="http://www.w3.org/2000/svg"
   xmlns:sodipodi="http://sodipodi.sourceforge.net/DTD/sodipodi-0.dtd"
   xmlns:inkscape="http://www.inkscape.org/namespaces/inkscape"
   sodipodi:docname="TOH.svg"
   inkscape:version="1.0 (4035a4fb49, 2020-05-01)"
   id="svg8"
   version="1.1"
   viewBox="0 0 55.195957 18.56003"
   height="18.56003mm"
   width="55.195957mm">
  <defs
     id="defs2" />
  <sodipodi:namedview
     inkscape:window-maximized="1"
     inkscape:window-y="48"
     inkscape:window-x="0"
     inkscape:window-height="720"
     inkscape:window-width="1366"
     showgrid="false"
     inkscape:document-rotation="0"
     inkscape:current-layer="layer1"
     inkscape:document-units="mm"
     inkscape:cy="26.775513"
     inkscape:cx="204.47001"
     inkscape:zoom="1.4"
     inkscape:pageshadow="2"
     inkscape:pageopacity="0.0"
     borderopacity="1.0"
     bordercolor="#666666"
     pagecolor="#ffffff"
     id="base" />
  <metadata
     id="metadata5">
    <rdf:RDF>
      <cc:Work
         rdf:about="">
        <dc:format>image/svg+xml</dc:format>
        <dc:type
           rdf:resource="http://purl.org/dc/dcmitype/StillImage" />
        <dc:title></dc:title>
      </cc:Work>
    </rdf:RDF>
  </metadata>
  <g
     transform="translate(-66.140133,-119.23192)"
     id="layer1"
     inkscape:groupmode="layer"
     inkscape:label="Layer 1">
    <path
       d="m 77.038943,123.71581 v -0.15615 q 0.02231,0 0.06692,-0.007 0.04462,-0.007 0.08923,-0.0372 0.05205,-0.0372 0.08923,-0.1041 0.04462,-0.0744 0.05205,-0.20077 v -3.54697 l 0.0074,-0.007 q 0,-0.007 0,-0.007 0.0074,-0.007 0.0074,-0.0223 0,-0.0149 -0.01487,-0.0223 -0.01487,-0.007 -0.02974,-0.007 -0.04462,0 -0.126411,0 -0.0818,0 -0.171028,0.0149 -0.08923,0.007 -0.163591,0.0372 -0.07436,0.0223 -0.09667,0.0818 l -0.446159,0.99642 h -0.118976 v -0.98899 q -0.0074,-0.12641 -0.05205,-0.19333 -0.03718,-0.0744 -0.08923,-0.10411 -0.04462,-0.0372 -0.08923,-0.0446 -0.04462,-0.007 -0.06692,-0.007 v -0.15615 h 3.546963 v 0.15615 q -0.02231,0 -0.06692,0.007 -0.04462,0.007 -0.09667,0.0446 -0.04462,0.0298 -0.08923,0.10411 -0.03718,0.0669 -0.04462,0.19333 v 0.98899 h -0.118975 l -0.446159,-0.99642 q -0.02231,-0.0595 -0.09667,-0.0818 -0.07436,-0.0297 -0.163591,-0.0372 -0.08923,-0.0149 -0.171028,-0.0149 -0.0818,0 -0.126412,0 -0.01487,0 -0.02974,0.007 -0.01487,0.007 -0.01487,0.0223 0,0.0223 0.0074,0.0298 0,0.007 0.0074,0.007 v 3.54697 q 0.0074,0.12641 0.04462,0.20077 0.04462,0.0669 0.08923,0.1041 0.05205,0.0298 0.09667,0.0372 0.04462,0.007 0.06692,0.007 v 0.15615 z"
       style="font-style:normal;font-variant:normal;font-weight:normal;font-stretch:normal;font-size:7.43598px;line-height:1.25;font-family:'PAC LIBERTAS';-inkscape-font-specification:'PAC LIBERTAS';letter-spacing:1.85208px;word-spacing:0px;fill:#ffffff;fill-opacity:1;stroke:none;stroke-width:0.348562"
       id="path35" />
    <path
       d="M 85.204166,123.71581 H 83.82851 v -0.15615 h 0.230515 q 0.07436,-0.007 0.08923,-0.0892 0.01487,-0.0818 -0.02231,-0.20821 l -0.342055,-1.14514 h -1.256681 l -0.364363,1.28642 q -0.01487,0.10411 0.07436,0.13385 0.08923,0.0223 0.245387,0.0223 v 0.15615 H 81.4713 v -0.15615 q 0.05205,0 0.11154,0 0.06692,-0.007 0.09667,-0.0223 0.02231,-0.0149 0.04462,-0.0595 0.02974,-0.0446 0.06692,-0.17103 0.04462,-0.13384 0.11154,-0.37923 0.06692,-0.24539 0.178463,-0.66924 0.11154,-0.42385 0.275132,-1.04847 0.163591,-0.63206 0.401542,-1.52438 l 0.02231,-0.11897 q 0.01487,-0.0818 -0.01487,-0.12642 -0.02231,-0.052 -0.126411,-0.052 h -0.11154 v -0.15615 h 1.643352 v 0.15615 q -0.14872,0 -0.237952,0.10411 -0.08923,0.1041 -0.03718,0.26026 0.245388,0.85513 0.416415,1.46488 0.171028,0.60232 0.282567,1.0113 0.118976,0.40898 0.1859,0.65436 0.07436,0.24539 0.118976,0.37924 0.04461,0.13385 0.06692,0.1859 0.02974,0.0446 0.05949,0.0669 l 0.02231,0.0223 q 0.01487,0 0.02974,0.0149 0.02231,0.007 0.126412,0.007 z m -1.509504,-1.91848 -0.557699,-1.97797 -0.520518,1.97797 z"
       style="font-style:normal;font-variant:normal;font-weight:normal;font-stretch:normal;font-size:7.43598px;line-height:1.25;font-family:'PAC LIBERTAS';-inkscape-font-specification:'PAC LIBERTAS';letter-spacing:1.85208px;word-spacing:0px;fill:#ffffff;fill-opacity:1;stroke:none;stroke-width:0.348562"
       id="path37" />
    <path
       d="m 90.008328,122.10964 v 1.10053 q 0.0074,0.12641 0.04462,0.20077 0.04462,0.0669 0.08923,0.1041 0.05205,0.0298 0.09667,0.0372 0.04462,0.007 0.06692,0.007 v 0.15615 h -2.974392 v -0.15615 q 0.02231,0 0.06692,-0.007 0.04462,-0.007 0.08923,-0.0372 0.05205,-0.0372 0.08923,-0.1041 0.04462,-0.0744 0.05205,-0.20077 v -3.47261 q -0.01487,-0.12641 -0.05205,-0.19333 -0.03718,-0.0744 -0.08923,-0.10411 -0.04462,-0.0372 -0.08923,-0.0446 -0.04461,-0.007 -0.06692,-0.007 v -0.15615 h 1.241808 v 0.15615 q -0.02231,0 -0.07436,0.007 -0.04461,0.007 -0.09667,0.0446 -0.04462,0.0298 -0.0818,0.10411 -0.03718,0.0669 -0.04462,0.19333 v 3.61389 h 0.892318 q 0.06692,-0.007 0.111539,-0.0223 0.05205,-0.0149 0.08923,-0.0892 l 0.520519,-1.13027 z"
       style="font-style:normal;font-variant:normal;font-weight:normal;font-stretch:normal;font-size:7.43598px;line-height:1.25;font-family:'PAC LIBERTAS';-inkscape-font-specification:'PAC LIBERTAS';letter-spacing:1.85208px;word-spacing:0px;fill:#ffffff;fill-opacity:1;stroke:none;stroke-width:0.348562"
       id="path39" />
    <path
       d="m 92.373484,119.23192 h 2.877724 v 0.15615 q -0.02231,0 -0.06692,0.007 -0.04462,0.007 -0.09667,0.0446 -0.04462,0.0298 -0.08923,0.10411 -0.03718,0.0669 -0.04462,0.19333 v 0.98155 h -0.118975 l -0.446159,-0.88488 q -0.05949,-0.11154 -0.104104,-0.17103 -0.04462,-0.0595 -0.141284,-0.0669 h -0.825393 v 1.54668 h 0.178463 q 0.05205,0 0.0818,-0.0149 0.03718,-0.0223 0.0818,-0.0818 0.05205,-0.0669 0.118975,-0.1859 0.06692,-0.12642 0.1859,-0.33462 h 0.118976 v 1.60617 h -0.118976 q -0.118976,-0.20821 -0.1859,-0.32718 -0.06692,-0.12642 -0.118975,-0.1859 -0.04462,-0.0669 -0.0818,-0.0818 -0.02974,-0.0223 -0.0818,-0.0223 h -0.178463 v 1.83669 h 0.892317 q 0.06692,-0.007 0.11154,-0.0223 0.05205,-0.0149 0.08923,-0.0892 l 0.520518,-1.13027 h 0.118976 v 1.10053 q 0.0074,0.12641 0.04462,0.20077 0.04462,0.0669 0.08923,0.1041 0.05205,0.0298 0.09667,0.0372 0.04462,0.007 0.06692,0.007 v 0.15615 h -2.974392 v -0.15615 q 0.02231,0 0.06692,-0.007 0.04462,-0.007 0.08923,-0.0372 0.05205,-0.0372 0.08923,-0.1041 0.04462,-0.0744 0.05205,-0.20077 v -3.47261 q -0.0074,-0.12641 -0.05205,-0.19333 -0.03718,-0.0744 -0.08923,-0.10411 -0.04462,-0.0372 -0.08923,-0.0446 -0.04462,-0.007 -0.06692,-0.007 z"
       style="font-style:normal;font-variant:normal;font-weight:normal;font-stretch:normal;font-size:7.43598px;line-height:1.25;font-family:'PAC LIBERTAS';-inkscape-font-specification:'PAC LIBERTAS';letter-spacing:1.85208px;word-spacing:0px;fill:#ffffff;fill-opacity:1;stroke:none;stroke-width:0.348562"
       id="path41" />
    <path
       d="m 104.63644,123.71581 q -0.26025,0 -0.46103,-0.17102 -0.19333,-0.17103 -0.21564,-0.46847 v -3.21234 q 0.0223,-0.29001 0.21564,-0.46104 0.20078,-0.17102 0.46103,-0.17102 h 1.13027 q 0.26026,0 0.4536,0.17102 0.20077,0.17103 0.22308,0.46104 v 3.21234 q -0.0223,0.29744 -0.22308,0.46847 -0.19334,0.17102 -0.4536,0.17102 z m 0.8254,-0.36436 q 0.14128,0 0.23051,-0.0818 0.0892,-0.0818 0.10411,-0.2082 v -3.17517 q -0.0149,-0.12641 -0.10411,-0.2082 -0.0892,-0.0818 -0.23051,-0.0818 h -0.52052 q -0.14128,0 -0.23052,0.0818 -0.0892,0.0818 -0.1041,0.2082 v 3.17517 q 0.0149,0.12641 0.1041,0.2082 0.0892,0.0818 0.23052,0.0818 z"
       style="font-style:normal;font-variant:normal;font-weight:normal;font-stretch:normal;font-size:7.43598px;line-height:1.25;font-family:'PAC LIBERTAS';-inkscape-font-specification:'PAC LIBERTAS';letter-spacing:1.85208px;word-spacing:0px;fill:#ffffff;fill-opacity:1;stroke:none;stroke-width:0.348562"
       id="path43" />
    <path
       d="m 108.69701,123.71581 v -0.15615 q 0.0223,0 0.0669,-0.007 0.0446,-0.007 0.0892,-0.0372 0.052,-0.0372 0.0892,-0.1041 0.0446,-0.0744 0.0521,-0.20077 v -3.47261 q -0.007,-0.12641 -0.0521,-0.19333 -0.0372,-0.0744 -0.0892,-0.10411 -0.0446,-0.0372 -0.0892,-0.0446 -0.0446,-0.007 -0.0669,-0.007 v -0.15615 h 2.90003 v 0.15615 q -0.0223,0 -0.0669,0.007 -0.0446,0.007 -0.0967,0.0446 -0.0446,0.0298 -0.0892,0.10411 -0.0372,0.0669 -0.0446,0.19333 v 0.95924 h -0.11898 l -0.49821,-0.98898 q -0.0372,-0.0818 -0.0892,-0.0967 -0.0521,-0.0149 -0.11154,-0.0149 h -0.84026 v 1.64335 h 0.17846 q 0.052,0 0.0818,-0.0149 0.0372,-0.0223 0.0818,-0.0818 0.0521,-0.0669 0.11898,-0.1859 0.0669,-0.12641 0.1859,-0.33461 h 0.11897 v 1.60617 h -0.11897 q -0.11898,-0.20821 -0.1859,-0.32719 -0.0669,-0.12641 -0.11898,-0.1859 -0.0446,-0.0669 -0.0818,-0.0818 -0.0298,-0.0223 -0.0818,-0.0223 h -0.17846 v 1.59874 q 0.007,0.12641 0.0446,0.20077 0.0446,0.0669 0.0892,0.1041 0.0521,0.0298 0.0967,0.0372 0.0446,0.007 0.0669,0.007 v 0.15615 z"
       style="font-style:normal;font-variant:normal;font-weight:normal;font-stretch:normal;font-size:7.43598px;line-height:1.25;font-family:'PAC LIBERTAS';-inkscape-font-specification:'PAC LIBERTAS';letter-spacing:1.85208px;word-spacing:0px;fill:#ffffff;fill-opacity:1;stroke:none;stroke-width:0.348562"
       id="path45" />
    <path
       d="m 66.487581,128.85172 c 0.09354,-0.147 0.213816,-0.26727 0.347451,-0.36082 0.146999,-0.0935 0.307361,-0.147 0.481086,-0.17372 0.120272,-0.0134 0.240543,-0.0134 0.360815,-0.0134 0.253906,0.0134 0.507813,0.0668 0.761719,0.0935 0.253906,0.0267 0.507813,0.0267 0.761719,-0.0267 0.347451,-0.0668 0.681539,-0.24054 0.948809,-0.46772 0.280633,-0.24054 0.521176,-0.50781 0.775083,-0.77508 0.04009,-0.0535 0.09354,-0.12028 0.146998,-0.17373 l -0.253906,-0.12027 c -0.213816,0.13363 -0.454359,0.21382 -0.694902,0.25391 -0.253907,0.0401 -0.521177,0.0401 -0.775083,0.0134 -0.253907,-0.0267 -0.507813,-0.0668 -0.761719,-0.0936 -0.240543,-0.0134 -0.467723,0 -0.708266,0.0401 -0.227179,0.0534 -0.440995,0.13363 -0.641448,0.26727 -0.280633,0.17372 -0.494449,0.41426 -0.668175,0.6949 -0.146998,0.22718 -0.253906,0.45436 -0.334087,0.70826 z m 1.162625,6.32093 v 0.33409 c 0.521176,-0.0534 1.042352,-0.21382 1.483348,-0.49445 0.320724,-0.21382 0.614721,-0.49445 0.775083,-0.8419 0.08018,-0.18709 0.133635,-0.37418 0.160362,-0.56127 0.02673,-0.18709 0.02673,-0.38754 0.02673,-0.58799 v -1.93771 -1.04235 c 0.01336,-0.37418 0.01336,-0.77508 0.133635,-1.1359 0.05345,-0.18709 0.146998,-0.36081 0.253906,-0.52117 0.06682,-0.0935 0.146999,-0.18709 0.22718,-0.28064 0,2.5257 0,5.03804 0,7.56374 -0.788447,-0.26727 -1.670438,-0.26727 -2.458884,0 -0.922081,0.33409 -1.697164,1.01563 -2.111433,1.88426 h 0.400905 c 0.521177,-0.54791 1.282896,-0.85527 2.031252,-0.82854 0.494449,0.0267 0.988899,0.20045 1.403167,0.48108 l 1.33635,-1.26953 c -0.08018,-0.0401 -0.146998,-0.0802 -0.213816,-0.10691 0,-1.10917 0,-2.21834 0,-3.32751 h 1.8308 v 2.9667 l -0.694902,0.53454 0.146998,0.20045 0.334088,-0.2539 1.296259,1.18935 1.763982,-1.51008 -0.187089,-0.18709 -0.414268,0.34745 -0.387542,-0.41426 v -7.24302 l 0.507813,-0.41427 -0.240543,-0.294 -0.387541,0.32073 -1.015626,-0.82854 -1.550166,1.26953 0.01336,0.36082 0.454359,-0.34745 0.360815,0.33408 v 2.40543 h -1.8308 c 0,-1.06908 0,-2.15152 0,-3.23396 H 70.710447 L 70.376359,128.09 c -0.200452,0.22718 -0.414268,0.44099 -0.654811,0.61472 -0.22718,0.17372 -0.481086,0.33409 -0.721629,0.52118 -0.213816,0.17372 -0.387541,0.37417 -0.494449,0.62808 -0.106908,0.25391 -0.133635,0.53454 -0.133635,0.80181 v 0.34745 c -0.253907,0.0401 -0.521177,0.0802 -0.76172,0.18709 -0.187089,0.0935 -0.347451,0.22718 -0.481086,0.38754 -0.133635,0.16036 -0.213816,0.34745 -0.26727,0.54791 -0.08018,0.38754 -0.01336,0.78844 0.173726,1.12253 h 0.253906 c -0.01336,-0.0935 -0.01336,-0.18709 0.01336,-0.28063 0.02673,-0.16037 0.133635,-0.30736 0.280633,-0.38755 0.06682,-0.0401 0.146999,-0.0668 0.22718,-0.0802 0.08018,-0.0134 0.160362,-0.0134 0.240543,-0.0134 h 0.320724 c 0,0 0,0.0134 0,0.0267 0,0.38754 0.02673,0.78844 0.01336,1.17598 0,0.20046 -0.01336,0.38755 -0.06682,0.588 -0.04009,0.18709 -0.120272,0.37418 -0.240543,0.52117 -0.106908,0.16037 -0.253907,0.294 -0.427632,0.37418 z"
       style="font-style:normal;font-variant:normal;font-weight:normal;font-stretch:normal;font-size:13.3635px;line-height:1.25;font-family:Chomsky;-inkscape-font-specification:Chomsky;letter-spacing:3.32846px;word-spacing:0px;fill:#ffffff;fill-opacity:1;stroke:none;stroke-width:0.626414"
       id="path22" />
    <path
       d="m 79.65156,136.22837 0.587994,-0.48109 1.991162,1.46999 2.752881,-2.23171 -0.200453,-0.32072 -1.469985,1.14926 -1.60362,-1.09581 v -0.57463 l 2.886516,-1.79071 v -0.0668 l -1.349713,-2.04462 -3.193877,1.65708 v 3.52796 l -0.641448,0.50781 z m 2.057979,-2.40543 v -2.41879 l 0.253907,-0.147 1.162624,1.67044 z"
       style="font-style:normal;font-variant:normal;font-weight:normal;font-stretch:normal;font-size:13.3635px;line-height:1.25;font-family:Chomsky;-inkscape-font-specification:Chomsky;letter-spacing:3.32846px;word-spacing:0px;fill:#ffffff;fill-opacity:1;stroke:none;stroke-width:0.626414"
       id="path24" />
    <path
       d="m 92.748736,135.4132 -0.721629,0.49445 -0.53454,-0.41427 v -3.94224 c 0.200453,0.18709 0.414269,0.33409 0.654812,0.42764 0.160362,0.0668 0.334087,0.12027 0.494449,0.12027 0.173726,0.0134 0.347451,-0.0267 0.507813,-0.0935 0.200453,-0.0935 0.360815,-0.2539 0.481086,-0.42763 0.106908,-0.18709 0.187089,-0.38754 0.253907,-0.60136 0.06682,-0.24054 0.106908,-0.49445 0.133635,-0.74835 h -0.400905 c -0.06682,0.10691 -0.160362,0.20045 -0.26727,0.2539 -0.106908,0.0535 -0.22718,0.0802 -0.360815,0.0802 -0.227179,0 -0.454359,-0.13364 -0.57463,-0.33409 h -0.133635 l -0.935445,1.06908 -0.975536,-1.05572 -1.790709,1.21608 0.187089,0.25391 0.507813,-0.32073 0.454359,0.57463 v 3.52797 l -0.8419,0.57463 0.200452,0.2539 0.440996,-0.32072 1.469985,1.14926 2.004525,-1.44326 z"
       style="font-style:normal;font-variant:normal;font-weight:normal;font-stretch:normal;font-size:13.3635px;line-height:1.25;font-family:Chomsky;-inkscape-font-specification:Chomsky;letter-spacing:3.32846px;word-spacing:0px;fill:#ffffff;fill-opacity:1;stroke:none;stroke-width:0.626414"
       id="path26" />
    <path
       d="m 99.645227,135.03902 v -3.83533 l 1.536803,1.01563 v 3.84869 z m -2.17825,1.14926 0.561267,-0.45436 c 0.614721,0.45436 1.242805,0.90872 1.87089,1.36308 l 2.953336,-1.80408 v -3.64823 l -1.92435,-1.46999 -3.006784,1.7239 c 0,1.14926 0,2.29852 0,3.44778 l -0.681539,0.5479 z"
       style="font-style:normal;font-variant:normal;font-weight:normal;font-stretch:normal;font-size:13.3635px;line-height:1.25;font-family:Chomsky;-inkscape-font-specification:Chomsky;letter-spacing:3.32846px;word-spacing:0px;fill:#ffffff;fill-opacity:1;stroke:none;stroke-width:0.626414"
       id="path28" />
    <path
       d="m 107.03617,136.22837 0.58799,-0.48109 1.99116,1.46999 2.75288,-2.23171 -0.20045,-0.32072 -1.46998,1.14926 -1.60362,-1.09581 v -0.57463 l 2.88651,-1.79071 v -0.0668 l -1.34971,-2.04462 -3.19388,1.65708 v 3.52796 l -0.64144,0.50781 z m 2.05798,-2.40543 v -2.41879 l 0.2539,-0.147 1.16263,1.67044 z"
       style="font-style:normal;font-variant:normal;font-weight:normal;font-stretch:normal;font-size:13.3635px;line-height:1.25;font-family:Chomsky;-inkscape-font-specification:Chomsky;letter-spacing:3.32846px;word-spacing:0px;fill:#ffffff;fill-opacity:1;stroke:none;stroke-width:0.626414"
       id="path30" />
    <path
       d="m 121.33606,130.26825 h -0.37418 c 0,0.0134 0,0.0134 0,0.0134 v -0.0134 c -0.0267,0.17372 -0.10691,0.32072 -0.24054,0.42763 -0.12028,0.0802 -0.26727,0.13364 -0.41427,0.13364 -0.16036,0 -0.30736,-0.0401 -0.441,-0.0935 -0.22718,-0.10691 -0.41427,-0.28063 -0.5479,-0.49445 l -2.76625,1.60362 v 1.87089 l 1.01563,0.80181 c -0.12027,0.10691 -0.22718,0.21382 -0.33409,0.32073 -0.36081,0.36081 -0.70826,0.74835 -0.86863,1.22944 -0.0935,0.33408 -0.0935,0.6949 0.0401,1.01562 0.13363,0.32073 0.4009,0.57463 0.72162,0.70827 l 0.13364,-0.36082 c -0.0802,-0.0401 -0.13364,-0.1069 -0.17373,-0.18708 -0.0267,-0.0935 -0.0267,-0.20046 0.0134,-0.294 0.0267,-0.0935 0.0935,-0.17373 0.17372,-0.22718 0.12027,-0.0802 0.25391,-0.12027 0.40091,-0.12027 0.13363,-0.0134 0.26727,0.0267 0.4009,0.0802 0.25391,0.0935 0.48109,0.294 0.61472,0.53454 l 2.63261,-1.60362 v -2.01789 l -1.14926,-0.8419 c 0.147,-0.13364 0.28064,-0.26727 0.41427,-0.41427 0.147,-0.20045 0.28063,-0.41427 0.37418,-0.64145 0.21381,-0.44099 0.33409,-0.93544 0.37418,-1.42989 z m -2.47225,3.60814 0.73499,0.60136 v 1.73726 c -0.16036,-0.37418 -0.46772,-0.68154 -0.82854,-0.85527 -0.26727,-0.13363 -0.56126,-0.18709 -0.85526,-0.17372 -0.294,0.0267 -0.57463,0.13363 -0.80181,0.30736 0.12027,-0.13364 0.25391,-0.26727 0.38754,-0.40091 0.28064,-0.26727 0.57463,-0.53454 0.88199,-0.80181 z m -0.0401,-0.45436 -0.5479,-0.57463 v -1.73725 c 0.14699,0.37418 0.45435,0.6949 0.82853,0.85526 0.26727,0.12027 0.54791,0.16037 0.82854,0.12027 0.16036,-0.0267 0.32072,-0.0668 0.46772,-0.13363 -0.0401,0.0534 -0.0802,0.10691 -0.12027,0.16036 -0.13363,0.17373 -0.30736,0.32073 -0.46772,0.45436 z"
       style="font-style:normal;font-variant:normal;font-weight:normal;font-stretch:normal;font-size:13.3635px;line-height:1.25;font-family:Chomsky;-inkscape-font-specification:Chomsky;letter-spacing:3.32846px;word-spacing:0px;fill:#ffffff;fill-opacity:1;stroke:none;stroke-width:0.626414"
       id="path32" />
  </g>
</svg>
