<?xml version="1.0" encoding="UTF-8" standalone="no"?>
<!-- Created with Inkscape (http://www.inkscape.org/) -->

<svg
   xmlns:dc="http://purl.org/dc/elements/1.1/"
   xmlns:cc="http://creativecommons.org/ns#"
   xmlns:rdf="http://www.w3.org/1999/02/22-rdf-syntax-ns#"
   xmlns:svg="http://www.w3.org/2000/svg"
   xmlns="http://www.w3.org/2000/svg"
   xmlns:sodipodi="http://sodipodi.sourceforge.net/DTD/sodipodi-0.dtd"
   xmlns:inkscape="http://www.inkscape.org/namespaces/inkscape"
   width="40.570992mm"
   height="18.065538mm"
   viewBox="0 0 40.570989 18.065538"
   version="1.1"
   id="svg8"
   inkscape:version="0.92.4 (f8dce91, 2019-08-02)"
   sodipodi:docname="TOW.svg">
  <defs
     id="defs2" />
  <sodipodi:namedview
     id="base"
     pagecolor="#ffffff"
     bordercolor="#666666"
     borderopacity="1.0"
     inkscape:pageopacity="0.0"
     inkscape:pageshadow="2"
     inkscape:zoom="3.15"
     inkscape:cx="99.360015"
     inkscape:cy="18.372773"
     inkscape:document-units="mm"
     inkscape:current-layer="g4761"
     showgrid="false"
     inkscape:window-width="1366"
     inkscape:window-height="689"
     inkscape:window-x="0"
     inkscape:window-y="0"
     inkscape:window-maximized="1" />
  <metadata
     id="metadata5">
    <rdf:RDF>
      <cc:Work
         rdf:about="">
        <dc:format>image/svg+xml</dc:format>
        <dc:type
           rdf:resource="http://purl.org/dc/dcmitype/StillImage" />
        <dc:title />
      </cc:Work>
    </rdf:RDF>
  </metadata>
  <g
     inkscape:label="Layer 1"
     inkscape:groupmode="layer"
     id="layer1"
     transform="translate(-55.366625,-203.04205)">
    <g
       id="g4740">
      <g
         id="g4761">
        <path
           inkscape:connector-curvature="0"
           id="path4105"
           style="font-style:normal;font-variant:normal;font-weight:normal;font-stretch:normal;font-size:7.43597603px;line-height:1.25;font-family:'PAC LIBERTAS';-inkscape-font-specification:'PAC LIBERTAS';letter-spacing:1.85208333px;word-spacing:0px;fill:#ffffff;fill-opacity:1;stroke:none;stroke-width:0.34856138"
           d="m 56.519201,207.52594 v -0.15616 q 0.02231,0 0.06692,-0.007 0.04462,-0.007 0.08923,-0.0372 0.05205,-0.0372 0.08923,-0.10411 0.04462,-0.0743 0.05205,-0.20077 v -3.54696 l 0.0074,-0.007 q 0,-0.007 0,-0.007 0.0074,-0.007 0.0074,-0.0223 0,-0.0149 -0.01487,-0.0223 -0.01487,-0.007 -0.02974,-0.007 -0.04462,0 -0.126411,0 -0.0818,0 -0.171028,0.0149 -0.08923,0.007 -0.163591,0.0372 -0.07436,0.0223 -0.09667,0.0818 l -0.446158,0.99642 h -0.118976 v -0.98899 q -0.0074,-0.12641 -0.05205,-0.19333 -0.03718,-0.0744 -0.08923,-0.10411 -0.04462,-0.0372 -0.08923,-0.0446 -0.04462,-0.007 -0.06692,-0.007 v -0.15615 h 3.546961 v 0.15615 q -0.02231,0 -0.06692,0.007 -0.04462,0.007 -0.09667,0.0446 -0.04462,0.0298 -0.08923,0.10411 -0.03718,0.0669 -0.04462,0.19333 v 0.98899 h -0.118976 l -0.446159,-0.99642 q -0.02231,-0.0595 -0.09667,-0.0818 -0.07436,-0.0297 -0.163592,-0.0372 -0.08923,-0.0149 -0.171027,-0.0149 -0.0818,0 -0.126412,0 -0.01487,0 -0.02974,0.007 -0.01487,0.007 -0.01487,0.0223 0,0.0223 0.0074,0.0298 0,0.007 0.0074,0.007 v 3.54696 q 0.0074,0.12642 0.04462,0.20077 0.04462,0.0669 0.08923,0.10411 0.05205,0.0297 0.09667,0.0372 0.04462,0.007 0.06692,0.007 v 0.15616 z" />
        <path
           inkscape:connector-curvature="0"
           id="path4107"
           style="font-style:normal;font-variant:normal;font-weight:normal;font-stretch:normal;font-size:7.43597603px;line-height:1.25;font-family:'PAC LIBERTAS';-inkscape-font-specification:'PAC LIBERTAS';letter-spacing:1.85208333px;word-spacing:0px;fill:#ffffff;fill-opacity:1;stroke:none;stroke-width:0.34856138"
           d="M 64.691516,207.52594 H 63.31586 v -0.15616 h 0.230515 q 0.07436,-0.007 0.08923,-0.0892 0.01487,-0.0818 -0.02231,-0.2082 l -0.342055,-1.14514 h -1.25668 l -0.364362,1.28642 q -0.01487,0.1041 0.07436,0.13385 0.08923,0.0223 0.245387,0.0223 v 0.15616 h -1.011292 v -0.15616 q 0.05205,0 0.111539,0 0.06692,-0.007 0.09667,-0.0223 0.02231,-0.0149 0.04462,-0.0595 0.02974,-0.0446 0.06692,-0.17103 0.04462,-0.13385 0.111539,-0.37923 0.06692,-0.24539 0.178464,-0.66924 0.111539,-0.42385 0.275131,-1.04847 0.163591,-0.63206 0.401543,-1.52438 l 0.02231,-0.11897 q 0.01487,-0.0818 -0.01487,-0.12642 -0.02231,-0.052 -0.126412,-0.052 h -0.11154 v -0.15615 h 1.643351 v 0.15615 q -0.148719,0 -0.237951,0.10411 -0.08923,0.1041 -0.03718,0.26025 0.245387,0.85514 0.416415,1.46489 0.171027,0.60232 0.282567,1.01129 0.118975,0.40898 0.185899,0.65437 0.07436,0.24539 0.118976,0.37924 0.04462,0.13384 0.06692,0.18589 0.02974,0.0446 0.05949,0.0669 l 0.02231,0.0223 q 0.01487,0 0.02974,0.0149 0.02231,0.007 0.126412,0.007 z m -1.509503,-1.91848 -0.557699,-1.97797 -0.520518,1.97797 z" />
        <path
           inkscape:connector-curvature="0"
           id="path4109"
           style="font-style:normal;font-variant:normal;font-weight:normal;font-stretch:normal;font-size:7.43597603px;line-height:1.25;font-family:'PAC LIBERTAS';-inkscape-font-specification:'PAC LIBERTAS';letter-spacing:1.85208333px;word-spacing:0px;fill:#ffffff;fill-opacity:1;stroke:none;stroke-width:0.34856138"
           d="m 69.490802,205.91977 v 1.10052 q 0.0074,0.12642 0.04462,0.20077 0.04462,0.0669 0.08923,0.10411 0.05205,0.0297 0.09667,0.0372 0.04462,0.007 0.06692,0.007 v 0.15616 h -2.97439 v -0.15616 q 0.02231,0 0.06692,-0.007 0.04461,-0.007 0.08923,-0.0372 0.05205,-0.0372 0.08923,-0.10411 0.04462,-0.0743 0.05205,-0.20077 v -3.4726 q -0.01487,-0.12641 -0.05205,-0.19333 -0.03718,-0.0744 -0.08923,-0.10411 -0.04462,-0.0372 -0.08923,-0.0446 -0.04462,-0.007 -0.06692,-0.007 v -0.15615 h 1.241808 v 0.15615 q -0.02231,0 -0.07436,0.007 -0.04462,0.007 -0.09667,0.0446 -0.04461,0.0298 -0.08179,0.10411 -0.03718,0.0669 -0.04462,0.19333 v 3.61389 h 0.892317 q 0.06692,-0.007 0.11154,-0.0223 0.05205,-0.0149 0.08923,-0.0892 l 0.520519,-1.13027 z" />
        <path
           inkscape:connector-curvature="0"
           id="path4111"
           style="font-style:normal;font-variant:normal;font-weight:normal;font-stretch:normal;font-size:7.43597603px;line-height:1.25;font-family:'PAC LIBERTAS';-inkscape-font-specification:'PAC LIBERTAS';letter-spacing:1.85208333px;word-spacing:0px;fill:#ffffff;fill-opacity:1;stroke:none;stroke-width:0.34856138"
           d="m 71.861079,203.04205 h 2.877722 v 0.15615 q -0.02231,0 -0.06692,0.007 -0.04462,0.007 -0.09667,0.0446 -0.04462,0.0298 -0.08923,0.10411 -0.03718,0.0669 -0.04462,0.19333 v 0.98155 h -0.118975 l -0.446159,-0.88488 q -0.05949,-0.11154 -0.104103,-0.17103 -0.04462,-0.0595 -0.141284,-0.0669 h -0.825393 v 1.54668 h 0.178463 q 0.05205,0 0.0818,-0.0149 0.03718,-0.0223 0.0818,-0.0818 0.05205,-0.0669 0.118975,-0.18589 0.06692,-0.12642 0.1859,-0.33462 h 0.118975 v 1.60617 h -0.118975 q -0.118976,-0.20821 -0.1859,-0.32719 -0.06692,-0.12641 -0.118975,-0.1859 -0.04462,-0.0669 -0.0818,-0.0818 -0.02974,-0.0223 -0.0818,-0.0223 h -0.178463 v 1.83669 h 0.892317 q 0.06692,-0.007 0.111539,-0.0223 0.05205,-0.0149 0.08923,-0.0892 l 0.520518,-1.13027 h 0.118976 v 1.10052 q 0.0074,0.12642 0.04462,0.20077 0.04462,0.0669 0.08923,0.10411 0.05205,0.0297 0.09667,0.0372 0.04462,0.007 0.06692,0.007 v 0.15616 h -2.97439 v -0.15616 q 0.02231,0 0.06692,-0.007 0.04462,-0.007 0.08923,-0.0372 0.05205,-0.0372 0.08923,-0.10411 0.04462,-0.0743 0.05205,-0.20077 v -3.4726 q -0.0074,-0.12641 -0.05205,-0.19333 -0.03718,-0.0744 -0.08923,-0.10411 -0.04462,-0.0372 -0.08923,-0.0446 -0.04462,-0.007 -0.06692,-0.007 z" />
        <path
           inkscape:connector-curvature="0"
           id="path4113"
           style="font-style:normal;font-variant:normal;font-weight:normal;font-stretch:normal;font-size:7.43597603px;line-height:1.25;font-family:'PAC LIBERTAS';-inkscape-font-specification:'PAC LIBERTAS';letter-spacing:1.85208333px;word-spacing:0px;fill:#ffffff;fill-opacity:1;stroke:none;stroke-width:0.34856138"
           d="m 79.64196,206.88645 q -0.02231,0.29744 -0.223079,0.46846 -0.193336,0.17103 -0.453595,0.17103 h -1.249244 q -0.171027,0 -0.290003,-0.0744 -0.111539,-0.0744 -0.148719,-0.13385 -0.05205,0.0446 -0.07436,0.0892 -0.01487,0.0372 -0.01487,0.11898 h -0.13385 v -1.28642 h 0.118976 l 0.468467,0.78821 q 0.104103,0.12641 0.237951,0.13385 0.141283,0 0.282567,0 h 0.49821 q 0.141284,0 0.230516,-0.0818 0.08923,-0.0818 0.104103,-0.20821 v -0.85513 q 0.0074,-0.16359 -0.07436,-0.25283 -0.07436,-0.0967 -0.223079,-0.15615 l -1.055908,-0.40154 q -0.200772,-0.0669 -0.364363,-0.23052 -0.156156,-0.16359 -0.171028,-0.4759 v -0.8254 q 0.02231,-0.29 0.215644,-0.46103 0.200771,-0.17102 0.46103,-0.17102 h 1.115396 q 0.171028,0 0.282568,0.0744 0.118975,0.0744 0.156155,0.13384 0.05205,-0.0446 0.06692,-0.0818 0.02231,-0.0446 0.02231,-0.12641 h 0.133847 v 1.10796 h -0.118975 q -0.133848,-0.20077 -0.22308,-0.33462 -0.08179,-0.13385 -0.156155,-0.21565 -0.07436,-0.0892 -0.156156,-0.12641 -0.08179,-0.0446 -0.208207,-0.0669 h -0.60975 q -0.141283,0 -0.230515,0.0818 -0.08923,0.0818 -0.104104,0.20821 v 0.60975 q 0,0.12641 0.05949,0.23052 0.06692,0.1041 0.215643,0.15615 l 1.122833,0.40155 q 0.178463,0.0818 0.275131,0.17846 0.104103,0.0967 0.148719,0.21564 0.05205,0.11154 0.05949,0.24539 0.0074,0.12641 0.0074,0.26026 z" />
        <path
           inkscape:connector-curvature="0"
           id="path4115"
           style="font-style:normal;font-variant:normal;font-weight:normal;font-stretch:normal;font-size:7.43597603px;line-height:1.25;font-family:'PAC LIBERTAS';-inkscape-font-specification:'PAC LIBERTAS';letter-spacing:1.85208333px;word-spacing:0px;fill:#ffffff;fill-opacity:1;stroke:none;stroke-width:0.34856138"
           d="m 88.980154,207.52594 q -0.260259,0 -0.46103,-0.17103 -0.193336,-0.17102 -0.215643,-0.46846 v -3.21235 q 0.02231,-0.29 0.215643,-0.46103 0.200771,-0.17102 0.46103,-0.17102 h 1.130269 q 0.260259,0 0.453594,0.17102 0.200772,0.17103 0.22308,0.46103 v 3.21235 q -0.02231,0.29744 -0.22308,0.46846 -0.193335,0.17103 -0.453594,0.17103 z m 0.825394,-0.36436 q 0.141283,0 0.230515,-0.0818 0.08923,-0.0818 0.104104,-0.20821 v -3.17516 q -0.01487,-0.12641 -0.104104,-0.20821 -0.08923,-0.0818 -0.230515,-0.0818 h -0.520519 q -0.141283,0 -0.230515,0.0818 -0.08923,0.0818 -0.104104,0.20821 v 3.17516 q 0.01487,0.12642 0.104104,0.20821 0.08923,0.0818 0.230515,0.0818 z" />
        <path
           inkscape:connector-curvature="0"
           id="path4117"
           style="font-style:normal;font-variant:normal;font-weight:normal;font-stretch:normal;font-size:7.43597603px;line-height:1.25;font-family:'PAC LIBERTAS';-inkscape-font-specification:'PAC LIBERTAS';letter-spacing:1.85208333px;word-spacing:0px;fill:#ffffff;fill-opacity:1;stroke:none;stroke-width:0.34856138"
           d="m 93.037587,207.52594 v -0.15616 q 0.02231,0 0.06692,-0.007 0.04462,-0.007 0.08923,-0.0372 0.05205,-0.0372 0.08923,-0.10411 0.04462,-0.0743 0.05205,-0.20077 v -3.4726 q -0.0074,-0.12641 -0.05205,-0.19333 -0.03718,-0.0744 -0.08923,-0.10411 -0.04462,-0.0372 -0.08923,-0.0446 -0.04462,-0.007 -0.06692,-0.007 v -0.15615 h 2.90003 v 0.15615 q -0.02231,0 -0.06692,0.007 -0.04462,0.007 -0.09667,0.0446 -0.04462,0.0298 -0.08923,0.10411 -0.03718,0.0669 -0.04462,0.19333 v 0.95924 h -0.118975 l -0.498211,-0.98898 q -0.03718,-0.0818 -0.08923,-0.0967 -0.05205,-0.0149 -0.11154,-0.0149 h -0.840265 v 1.64335 h 0.178463 q 0.05205,0 0.0818,-0.0149 0.03718,-0.0223 0.0818,-0.0818 0.05205,-0.0669 0.118975,-0.1859 0.06692,-0.12641 0.1859,-0.33462 h 0.118975 v 1.60617 h -0.118975 q -0.118976,-0.2082 -0.1859,-0.32718 -0.06692,-0.12641 -0.118975,-0.1859 -0.04462,-0.0669 -0.0818,-0.0818 -0.02974,-0.0223 -0.0818,-0.0223 h -0.178463 v 1.59873 q 0.0074,0.12642 0.04462,0.20077 0.04462,0.0669 0.08923,0.10411 0.05205,0.0297 0.09667,0.0372 0.04462,0.007 0.06692,0.007 v 0.15616 z" />
        <path
           inkscape:connector-curvature="0"
           id="path4098"
           style="font-style:normal;font-variant:normal;font-weight:normal;font-stretch:normal;font-size:13.36351585px;line-height:1.25;font-family:Chomsky;-inkscape-font-specification:Chomsky;letter-spacing:3.3284595px;word-spacing:0px;fill:#ffffff;fill-opacity:1;stroke:none;stroke-width:0.62641484"
           d="m 60.209335,216.87135 h 0.253907 c -0.01336,-0.0935 -0.01336,-0.18709 0.01336,-0.28063 0.04009,-0.16037 0.133635,-0.30736 0.280634,-0.38755 0.06682,-0.0401 0.146999,-0.0668 0.22718,-0.0802 0.08018,-0.0134 0.160362,-0.0134 0.240543,-0.0134 0.173726,0 0.360815,0 0.534541,0 0,0.90872 0,1.81744 0,2.72616 -0.855265,0.36081 -1.576895,1.04235 -1.93771,1.89762 h 0.25391 c 0.561267,-0.46773 1.296261,-0.72163 2.031254,-0.70827 0.801811,0.0267 1.603622,0.38754 2.16489,0.97554 l 1.790711,-1.46999 2.285161,1.56353 3.608149,-2.69943 v -6.74857 l -1.309624,-1.22945 -1.830802,1.37644 v -1.20271 h -0.374178 c 0,2.79297 0,5.58595 0,8.37892 l -0.708267,-0.48108 v -6.84212 l -1.309624,-1.24281 -1.817438,1.36308 v -1.17599 h -0.374179 c 0,2.72615 0,5.43895 0,8.16511 -0.200452,-0.0668 -0.414269,-0.12028 -0.614721,-0.147 v -4.51687 -0.76172 c 0,-0.30736 0.01336,-0.60136 0,-0.89536 -0.01336,-0.29399 -0.04009,-0.60136 -0.146999,-0.86863 -0.106908,-0.29399 -0.293998,-0.5479 -0.534541,-0.72163 -0.240543,-0.18708 -0.53454,-0.30736 -0.841901,-0.34745 -0.374179,-0.0668 -0.775084,-0.0267 -1.135899,0.12027 -0.360815,0.16037 -0.668176,0.42764 -0.828538,0.78845 -0.09354,0.21382 -0.133635,0.45436 -0.120272,0.6949 h 0.334088 c 0.04009,-0.17372 0.120272,-0.32072 0.253907,-0.44099 0.120272,-0.10691 0.293997,-0.18709 0.454359,-0.18709 0.106909,-0.0134 0.213817,0.0134 0.320725,0.0534 0.09354,0.0401 0.173726,0.10691 0.240543,0.20046 0.06682,0.0802 0.106908,0.18709 0.133635,0.29399 0.01336,0.0936 0.01336,0.21382 0.01336,0.32073 v 1.65707 c 0,0.20046 0,0.38755 0,0.588 -0.334088,0.0535 -0.668176,0.0935 -0.975537,0.24054 -0.187089,0.0802 -0.347451,0.21382 -0.481086,0.37418 -0.133636,0.16036 -0.213817,0.34745 -0.267271,0.56127 -0.08018,0.37418 -0.01336,0.77508 0.173726,1.10917 z m 4.396597,2.03125 c 0,-0.6949 0,-1.3898 0,-2.0847 l 1.403169,-0.70827 v 2.36534 l -0.855265,0.72163 c -0.173726,-0.10691 -0.360815,-0.21381 -0.547904,-0.294 z m 0,-3.91551 c 0,-0.94881 0,-1.89761 0,-2.84642 l 0.547904,-0.40091 0.855265,0.72163 v 1.81744 z m 0,0.42764 1.403169,-0.70827 v 0.97554 l -1.403169,0.70826 z m 4.209507,-0.42764 v -2.8197 l 0.561268,-0.41427 0.855265,0.70827 v 1.80407 z m 0,0.42764 1.416533,-0.72163 v 0.97553 l -1.416533,0.72163 z m 0,1.40317 1.416533,-0.72163 v 2.98006 l -0.788448,0.57463 -0.76172,-0.52118 h 0.133635 z" />
        <path
           inkscape:connector-curvature="0"
           id="path4100"
           style="font-style:normal;font-variant:normal;font-weight:normal;font-stretch:normal;font-size:13.36351585px;line-height:1.25;font-family:'Fette UNZ Fraktur';-inkscape-font-specification:'Fette UNZ Fraktur';letter-spacing:3.3284595px;word-spacing:0px;fill:#ffffff;fill-opacity:1;stroke:none;stroke-width:0.62641484"
           d="m 80.087046,213.83783 q 0.09355,0.147 0.280634,0.32073 0.187089,0.16036 0.440996,0.33408 0.293997,0.21382 0.654812,0.41427 0.374179,0.18709 0.748357,0.32073 0.106908,0.0267 0.200453,0.0534 0.106908,0.0267 0.200453,0.0535 v 0.18708 h -0.173726 q -0.293997,-0.0134 -0.427632,0.16037 -0.133636,0.17372 -0.133636,0.38754 v 2.92661 q 0,0.37418 0.09354,0.5479 0.106908,0.16037 0.320724,0.16037 0.106909,0 0.240544,-0.0401 0.133635,-0.0401 0.293997,-0.12027 v 0.18709 q -0.387542,0.25391 -0.815174,0.62809 -0.427633,0.36081 -0.975537,0.74835 l -0.05345,-0.0535 q -0.01336,-0.0134 -0.04009,-0.0267 -0.06682,-0.0802 -0.146998,-0.13363 -0.08018,-0.0668 -0.160363,-0.13364 -0.240543,-0.21381 -0.454359,-0.45436 -0.200453,-0.24054 -0.213816,-0.53454 v -0.0267 q 0,-0.0134 0.01336,-0.0401 v -0.0535 q -0.280634,0.16036 -0.547904,0.36082 -0.26727,0.18709 -0.521177,0.4009 -0.240543,0.18709 -0.467723,0.36082 -0.22718,0.17372 -0.45436,0.33408 -0.360815,-0.24054 -0.587994,-0.41426 -0.213817,-0.18709 -0.347452,-0.36082 -0.146998,-0.20045 -0.187089,-0.42763 -0.04009,-0.22718 -0.04009,-0.57463 v -3.15379 q 0,-0.0802 0,-0.17373 0.01336,-0.0935 0.05345,-0.20045 0.05345,-0.147 0.200453,-0.294 0.160362,-0.16036 0.481087,-0.28063 0.240543,-0.10691 0.53454,-0.22718 0.307361,-0.12027 0.614722,-0.26727 0.387542,-0.17373 0.748357,-0.38754 0.360815,-0.22718 0.628085,-0.49445 z m -1.363078,5.37214 q 0,0.30736 0.08018,0.46772 0.09354,0.147 0.253907,0.147 0.06682,0 0.133635,-0.0134 0.08018,-0.0267 0.160362,-0.0668 l 0.534541,-0.32073 v -3.58142 q -0.374179,-0.13364 -0.628086,-0.33409 -0.253907,-0.21381 -0.481086,-0.44099 l -0.05345,-0.0535 z" />
        <path
           inkscape:connector-curvature="0"
           id="path4102"
           style="font-style:normal;font-variant:normal;font-weight:normal;font-stretch:normal;font-size:13.36351585px;line-height:1.25;font-family:Chomsky;-inkscape-font-specification:Chomsky;letter-spacing:3.3284595px;word-spacing:0px;fill:#ffffff;fill-opacity:1;stroke:none;stroke-width:0.62641484"
           d="m 90.52615,219.22333 -0.72163,0.49445 -0.53454,-0.41427 v -3.94224 c 0.200452,0.18709 0.414269,0.33409 0.654812,0.42764 0.160362,0.0668 0.334088,0.12027 0.49445,0.12027 0.173726,0.0134 0.347451,-0.0267 0.507814,-0.0935 0.200452,-0.0935 0.360815,-0.2539 0.481086,-0.42763 0.106908,-0.18709 0.187089,-0.38754 0.253907,-0.60136 0.06682,-0.24054 0.106908,-0.49445 0.133635,-0.74836 h -0.400905 c -0.06682,0.10691 -0.160362,0.20046 -0.267271,0.25391 -0.106908,0.0535 -0.227179,0.0802 -0.360815,0.0802 -0.227179,0 -0.454359,-0.13363 -0.574631,-0.33409 h -0.133635 l -0.935446,1.06909 -0.975537,-1.05572 -1.790711,1.21608 0.187089,0.2539 0.507814,-0.32072 0.45436,0.57463 v 3.52797 l -0.841902,0.57463 0.200453,0.25391 0.440996,-0.32073 1.469987,1.14927 2.004527,-1.44326 z" />
      </g>
    </g>
  </g>
</svg>
